<svg width="18" height="18" viewBox="0 0 18 18" fill="none" xmlns="http://www.w3.org/2000/svg">
<path d="M6.13898 6.83963C6.71375 8.18432 8.4612 8.84966 9.77937 8.1999C11.5415 7.48315 11.9434 4.89613 10.5152 3.6787C8.33655 1.64792 4.90038 4.11433 6.13898 6.83963Z" fill="white"/>
<path d="M11.64 9.57841C11.0878 9.22751 10.4154 9.03869 9.73334 9.03209C9.6523 9.02983 7.34541 9.02502 7.34731 9.0432C5.4576 9.13053 3.92386 10.7269 3.92432 12.6558C3.95638 12.9752 3.87225 13.9456 3.97453 14.2446C4.17516 15.1031 4.95009 15.7498 5.87549 15.7498H11.4058C12.4913 15.7544 13.3677 14.848 13.357 13.7986V12.6557C13.3518 11.3662 12.6773 10.2144 11.64 9.57841Z" fill="white"/>
<path d="M1.86756 14.2473H3.1275C3.05556 13.9557 3.10022 12.8906 3.08847 12.5748C3.13003 10.6139 4.43583 8.93586 6.27174 8.3825C6.10641 8.25139 5.96124 8.07632 5.82576 7.91979C5.69753 7.90305 5.58048 7.89746 5.45225 7.89746H3.4174C1.53311 7.89746 0 9.43057 0 11.3149V12.3797C0 13.411 0.836226 14.2473 1.86756 14.2473Z" fill="white"/>
<path d="M4.43719 7.47818C4.78841 7.47818 5.1173 7.4113 5.42394 7.28308C5.16903 6.7705 5.02395 6.16958 5.05599 5.56604C5.0852 4.58053 5.54183 3.63787 6.27131 3.0016C4.70501 1.38221 1.76755 2.58087 1.81702 4.86371C1.81699 6.30192 2.99329 7.47818 4.43719 7.47818Z" fill="white"/>
<path d="M13.8641 7.89885H11.8293C11.4288 7.81345 11.2796 8.16488 11.0098 8.38396C11.7568 8.60688 12.4202 9.01942 12.9442 9.57131C13.6968 10.3518 14.1707 11.411 14.193 12.5762C14.1817 12.8959 14.225 13.9468 14.154 14.2486C14.154 14.2487 15.4139 14.2487 15.4139 14.2487C16.4453 14.2487 17.2815 13.4124 17.2815 12.3811V11.3163C17.2815 9.43197 15.7484 7.89885 13.8641 7.89885Z" fill="white"/>
<path d="M12.0021 4.44652C12.1528 4.83374 12.2258 5.2626 12.2307 5.69528C12.2307 6.2639 12.0969 6.80467 11.8571 7.28409C12.1638 7.41232 12.4927 7.47919 12.8439 7.47919C16.3066 7.36657 16.3054 2.35858 12.8438 2.25C12.1303 2.25 11.4836 2.53986 11.0098 3.00261C11.4502 3.38727 11.7958 3.88346 12.0021 4.44652Z" fill="white"/>
</svg>
