<svg width="18" height="18" viewBox="0 0 18 18" fill="none" xmlns="http://www.w3.org/2000/svg">
<path fill-rule="evenodd" clip-rule="evenodd" d="M15.3524 1.25137C15.4329 1.17093 15.457 1.05 15.4135 0.944809C15.3699 0.839621 15.2675 0.770996 15.1536 0.770996H7.56742C7.45633 0.770996 7.35592 0.836246 7.31064 0.937496L3.5793 9.27937C3.5402 9.36628 3.54808 9.46725 3.60011 9.54712C3.65186 9.627 3.74074 9.67537 3.83608 9.67537H7.16214L4.3097 16.6965C4.25908 16.8211 4.3038 16.9642 4.4163 17.0377C4.52908 17.1113 4.67786 17.095 4.7718 16.9986L14.2693 7.24565C14.3481 7.16493 14.3709 7.04484 14.3273 6.94078C14.2834 6.83671 14.1819 6.76865 14.0691 6.76809L9.84864 6.74868L15.3524 1.25137Z" fill="white"/>
</svg>
