<svg  viewBox="0 0 24 24" xmlns="http://www.w3.org/2000/svg">
<path d="M10.6453 2.00008C10.5575 1.999 10.4699 2.00876 10.3848 2.03038C10.1263 2.09546 9.90422 2.26039 9.76726 2.48904L5.74997 9.18533H2.00547C1.45033 9.18569 1.00037 9.63564 1 10.1908V11.9159C1.00005 12.4713 1.4501 12.9216 2.00547 12.9219H22.1269C22.6822 12.9216 23.1323 12.4713 23.1323 11.9159V10.1908C23.1319 9.63564 22.682 9.1857 22.1269 9.18533H18.3846L14.3673 2.48904C14.2298 2.25992 14.0069 2.09489 13.7475 2.03038C13.4888 1.96531 13.2147 2.00572 12.9857 2.14266C12.509 2.42905 12.3551 3.04792 12.6422 3.52424L16.0397 9.18533H8.09489L11.4924 3.52424C11.7791 3.04732 11.6241 2.4283 11.1466 2.14266C10.9949 2.05195 10.822 2.00274 10.6453 2.00008Z" />
<path d="M3.44298 13.7852C2.78866 13.7853 2.30852 14.4 2.46696 15.0349L3.90341 20.7828C4.01553 21.2306 4.41789 21.5446 4.87944 21.5446H19.2504C19.7119 21.5446 20.1143 21.2305 20.2264 20.7828L21.665 15.0349C21.8234 14.4 21.3433 13.7853 20.6889 13.7852H3.44298Z" />
</svg>
