<svg width="18" height="18" viewBox="0 0 18 18" fill="none" xmlns="http://www.w3.org/2000/svg">
<path d="M2.05436 8.25979C1.70919 8.26076 1.37134 8.35944 1.07991 8.5444C0.788476 8.72937 0.555367 8.99307 0.40755 9.30499C0.259733 9.61691 0.203248 9.96431 0.244632 10.307C0.286016 10.6497 0.423576 10.9736 0.641399 11.2414L5.28486 16.9296C5.45042 17.1352 5.66265 17.2983 5.9039 17.4054C6.14516 17.5125 6.40849 17.5605 6.67201 17.5454C7.23563 17.5151 7.74448 17.2136 8.0689 16.7179L17.7146 1.18356C17.7161 1.18099 17.7178 1.17841 17.7195 1.17587C17.81 1.03691 17.7806 0.761525 17.5938 0.588525C17.5425 0.541017 17.482 0.504518 17.416 0.481275C17.3501 0.458032 17.2801 0.448537 17.2103 0.453377C17.1405 0.458216 17.0725 0.477286 17.0104 0.509412C16.9483 0.541538 16.8934 0.586041 16.8491 0.640179C16.8457 0.644435 16.8421 0.648627 16.8384 0.652756L7.11067 11.6437C7.07365 11.6855 7.0287 11.7196 6.97841 11.7439C6.92812 11.7682 6.87351 11.7822 6.81774 11.7852C6.76197 11.7883 6.70615 11.7802 6.65354 11.7614C6.60092 11.7427 6.55256 11.7137 6.51125 11.6761L3.28278 8.73818C2.94748 8.43081 2.50923 8.26014 2.05436 8.25979Z" fill="#02B644"/>
</svg>
