<svg  viewBox="0 0 34 34"  xmlns="http://www.w3.org/2000/svg">
<circle cx="17" cy="17" r="17" fill="#8E7762" fill-opacity="0.5"/>
<g clip-path="url(#clip0_4001_1261)">
<path d="M16.8653 13.3418C16.459 13.3418 16.1367 13.6641 16.1367 14.0704V17.3771C16.1367 17.6433 16.2908 17.8955 16.529 18.0216L18.6027 19.1285C18.7148 19.1845 18.8269 19.2125 18.939 19.2125C19.2052 19.2125 19.4574 19.0724 19.5835 18.8202C19.7797 18.4699 19.6396 18.0216 19.2753 17.8254L17.5939 16.9287V14.0704C17.6079 13.6641 17.2716 13.3418 16.8653 13.3418Z" fill="white"/>
<path d="M21.7553 12.361C20.5083 11.128 18.869 10.4414 17.1176 10.4414C15.3802 10.4414 13.7549 11.0999 12.5219 12.3189L11.8493 11.6464C11.5971 11.3942 11.1628 11.5203 11.0787 11.8706L10.3641 14.9671C10.28 15.3033 10.5883 15.5976 10.9106 15.5135L14.0071 14.7989C14.3573 14.7149 14.4834 14.2805 14.2312 14.0283L13.5727 13.3698C13.6428 13.2997 13.7128 13.2297 13.7829 13.1736C15.6744 11.4923 18.5467 11.5063 20.4523 13.1736C21.5732 14.1684 22.2037 15.5976 22.1757 17.0968C22.1476 18.596 21.4611 19.9971 20.2981 20.9499C18.4907 22.4211 15.8425 22.4491 14.0071 21.02C13.3766 20.5296 12.8862 19.9271 12.5499 19.2265C12.4238 18.9743 12.1576 18.8062 11.8773 18.8062C11.8213 18.8062 11.7512 18.8202 11.6952 18.8342C11.485 18.8902 11.3029 19.0304 11.2048 19.2405C11.1067 19.4507 11.1067 19.6749 11.2048 19.885C11.5551 20.6136 12.0315 21.2582 12.6339 21.8186C15.0859 24.1025 18.9671 24.1445 21.4751 21.9027C22.8202 20.6837 23.6048 19.0163 23.6469 17.2089C23.7029 15.3594 23.0304 13.65 21.7553 12.361Z" fill="white"/>
</g>
<defs>
<clipPath id="clip0_4001_1261">
<rect width="14" height="14" fill="white" transform="translate(10 10)"/>
</clipPath>
</defs>
</svg>
