<svg  viewBox="0 0 20 20" xmlns="http://www.w3.org/2000/svg">
<path fill-rule="evenodd" clip-rule="evenodd" d="M6.66667 3.88889C6.66667 3.12182 7.2885 2.49999 8.05556 2.5L16.3889 2.50006C17.156 2.50006 17.7778 3.12189 17.7778 3.88895V12.2222C17.7778 12.9893 17.156 13.6111 16.3889 13.6111H15.6944C15.3109 13.6111 15 13.3002 15 12.9167V7.70836C15 6.36601 13.9118 5.27781 12.5694 5.27781H7.36111C6.97758 5.27781 6.66667 4.9669 6.66667 4.58336V3.88889ZM2.5 8.05568C2.5 7.28861 3.12183 6.66679 3.88889 6.66679L12.2222 6.6668C12.9893 6.6668 13.6111 7.28863 13.6111 8.05569V16.389C13.6111 17.156 12.9893 17.7778 12.2222 17.7778H3.88889C3.12183 17.7778 2.5 17.156 2.5 16.389V8.05568Z" fill="#8E7762"/>
</svg>
