<svg width="48" height="48" viewBox="0 0 48 48" fill="none" xmlns="http://www.w3.org/2000/svg">
<path d="M11.6025 7.35375L2.25003 16.6987C2.13111 16.8038 2.03611 16.9332 1.97142 17.0781C1.90673 17.223 1.87386 17.3801 1.87503 17.5387L1.87503 37.0837C1.87701 38.1632 2.30672 39.1979 3.07003 39.9613C3.83334 40.7246 4.86805 41.1543 5.94753 41.1562H42.0525C43.132 41.1543 44.1667 40.7246 44.93 39.9613C45.6934 39.1979 46.1231 38.1632 46.125 37.0837V11.0437C46.1231 9.96426 45.6934 8.92956 44.93 8.16624C44.1667 7.40293 43.132 6.97323 42.0525 6.97125H12.4425C12.2833 6.97101 12.1258 7.00505 11.9809 7.07105C11.8359 7.13705 11.7069 7.23347 11.6025 7.35375ZM42.0525 9.22125C42.5359 9.22125 42.9995 9.41326 43.3412 9.75505C43.683 10.0968 43.875 10.5604 43.875 11.0437V37.0837C43.875 37.5671 43.683 38.0307 43.3412 38.3725C42.9995 38.7142 42.5359 38.9062 42.0525 38.9062H5.94753C5.46417 38.9062 5.00061 38.7142 4.65883 38.3725C4.31704 38.0307 4.12503 37.5671 4.12503 37.0837L4.12503 18.0037L12.9075 9.22125L42.0525 9.22125Z" fill="#20243A"/>
<path d="M27.8823 19.9439H29.6961L32.125 25.8725H32.2209L34.6499 19.9439H36.4636V28.1257H35.0414V22.5047H34.9655L32.7043 28.1017H31.6416L29.3805 22.4927H29.3046V28.1257H27.8823V19.9439Z" fill="#20243A"/>
<path d="M26.5023 19.9439V28.1257H25.0202V19.9439H26.5023Z" fill="#20243A"/>
<path d="M22.3857 22.1931C22.3484 21.8442 22.1913 21.5725 21.9143 21.3781C21.64 21.1837 21.2831 21.0865 20.8436 21.0865C20.5347 21.0865 20.2697 21.1331 20.0486 21.2263C19.8276 21.3195 19.6585 21.446 19.5413 21.6058C19.4241 21.7656 19.3642 21.9481 19.3615 22.1531C19.3615 22.3236 19.4001 22.4714 19.4773 22.5966C19.5572 22.7218 19.6651 22.8283 19.8009 22.9162C19.9368 23.0014 20.0873 23.0733 20.2524 23.1319C20.4175 23.1905 20.584 23.2398 20.7518 23.2797L21.5188 23.4715C21.8278 23.5434 22.1247 23.6406 22.4097 23.7631C22.6973 23.8857 22.9544 24.0401 23.1807 24.2266C23.4098 24.413 23.5909 24.6381 23.7241 24.9017C23.8572 25.1654 23.9238 25.4743 23.9238 25.8286C23.9238 26.308 23.8013 26.7301 23.5563 27.095C23.3112 27.4572 22.957 27.7409 22.4936 27.9459C22.0328 28.1483 21.4749 28.2496 20.8197 28.2496C20.1831 28.2496 19.6305 28.151 19.1617 27.9539C18.6957 27.7568 18.3308 27.4692 18.0671 27.091C17.8061 26.7128 17.6649 26.252 17.6436 25.7087H19.1018C19.1231 25.9937 19.211 26.2307 19.3655 26.4198C19.52 26.6089 19.721 26.7501 19.9687 26.8433C20.2191 26.9365 20.4987 26.9831 20.8077 26.9831C21.13 26.9831 21.4123 26.9352 21.6546 26.8393C21.8997 26.7408 22.0914 26.6049 22.2299 26.4318C22.3684 26.256 22.439 26.051 22.4417 25.8166C22.439 25.6035 22.3764 25.4277 22.2539 25.2892C22.1314 25.1481 21.9596 25.0309 21.7385 24.9377C21.5201 24.8418 21.2645 24.7566 20.9715 24.682L20.0406 24.4423C19.3668 24.2692 18.8341 24.0068 18.4426 23.6553C18.0538 23.301 17.8594 22.831 17.8594 22.245C17.8594 21.763 17.9899 21.3408 18.2509 20.9786C18.5145 20.6164 18.8728 20.3354 19.3255 20.1357C19.7783 19.9332 20.291 19.832 20.8636 19.832C21.4442 19.832 21.9529 19.9332 22.3897 20.1357C22.8292 20.3354 23.1741 20.6137 23.4244 20.9706C23.6748 21.3248 23.804 21.7323 23.812 22.1931H22.3857Z" fill="#20243A"/>
<path d="M14.1483 28.2456C13.533 28.2456 13.0017 28.1177 12.5542 27.862C12.1095 27.6037 11.7672 27.2388 11.5275 26.7674C11.2878 26.2933 11.168 25.7354 11.168 25.0935C11.168 24.4623 11.2878 23.9083 11.5275 23.4316C11.7699 22.9521 12.1081 22.5793 12.5423 22.3129C12.9764 22.0439 13.4864 21.9094 14.0724 21.9094C14.4506 21.9094 14.8074 21.9707 15.143 22.0932C15.4813 22.2131 15.7796 22.3995 16.0379 22.6525C16.2989 22.9055 16.504 23.2278 16.6531 23.6193C16.8023 24.0082 16.8769 24.4716 16.8769 25.0096V25.453H11.8471V24.4782H15.4906C15.4879 24.2013 15.428 23.9549 15.3108 23.7392C15.1936 23.5208 15.0298 23.349 14.8194 23.2238C14.6117 23.0986 14.3693 23.036 14.0923 23.036C13.7967 23.036 13.537 23.108 13.3133 23.2518C13.0896 23.3929 12.9151 23.5794 12.79 23.8111C12.6674 24.0401 12.6048 24.2918 12.6022 24.5661V25.4171C12.6022 25.774 12.6674 26.0803 12.7979 26.3359C12.9284 26.589 13.1109 26.7834 13.3453 26.9192C13.5796 27.0524 13.854 27.119 14.1682 27.119C14.3786 27.119 14.5691 27.0897 14.7395 27.0311C14.91 26.9698 15.0578 26.8806 15.183 26.7634C15.3081 26.6462 15.4027 26.5011 15.4666 26.3279L16.8169 26.4798C16.7317 26.8366 16.5692 27.1483 16.3295 27.4146C16.0925 27.6783 15.7889 27.8833 15.4187 28.0298C15.0485 28.1736 14.625 28.2456 14.1483 28.2456Z" fill="#20243A"/>
</svg>
