<svg  viewBox="0 0 24 24" xmlns="http://www.w3.org/2000/svg">
<path fill-rule="evenodd" clip-rule="evenodd" d="M10.0236 2.74814C11.2151 1.93291 12.7849 1.93291 13.9764 2.74814L20.4764 7.19551C21.4299 7.8479 22 8.92878 22 10.0841V18.5017C22 20.4347 20.433 22.0017 18.5 22.0017H5.5C3.567 22.0017 2 20.4347 2 18.5017V10.0841C2 8.92878 2.57012 7.8479 3.52361 7.19551L10.0236 2.74814ZM9.5 17.5017C9.22386 17.5017 9 17.7256 9 18.0017C9 18.2778 9.22386 18.5017 9.5 18.5017H14.5C14.7761 18.5017 15 18.2778 15 18.0017C15 17.7256 14.7761 17.5017 14.5 17.5017H9.5Z"  fill-opacity="0.5"/>
</svg>
