<svg width="136" height="106" viewBox="0 0 136 106" fill="none" xmlns="http://www.w3.org/2000/svg">
<path d="M81.5441 49.3906L73.1094 52.2563L83.226 74.3378L91.136 70.7451L81.5441 49.3906Z" fill="white"/>
<path d="M65.6792 36.9922L57.0869 40.8075L64.9335 71.2855L73.0002 66.7432L65.6792 36.9922Z" fill="white"/>
<path d="M53.5173 44.4983C55.1221 39.3096 60.3165 36.1031 65.679 36.991L9.19354 226.233C8.49946 228.478 6.25307 229.864 3.93398 229.48C1.124 229.016 -0.629388 226.179 0.211478 223.462L53.5173 44.4983Z" fill="#F85921"/>
<path d="M81.5438 49.3894C76.1815 48.5015 70.9869 51.7079 69.3821 56.8966L64.9229 71.3143C70.2853 72.2022 75.4797 68.9957 77.0845 63.807L81.5438 49.3894Z" fill="#F85921"/>
<path d="M126.807 -74.6896C127.501 -76.9335 129.747 -78.3204 132.066 -77.9363C134.877 -77.471 136.629 -74.6355 135.789 -71.9164L94.9844 68.1477C93.6116 72.5861 89.1679 75.3291 84.5807 74.5694L83.2275 74.3455L126.807 -74.6896Z" fill="#F85921"/>
</svg>
