<svg  viewBox="0 0 24 24" xmlns="http://www.w3.org/2000/svg">
<g clip-path="url(#clip0_403_7344)">
<path d="M11.9999 5.12222C11.5307 5.12222 11.1504 4.74192 11.1504 4.2727V0.849516C11.1504 0.380297 11.5307 0 11.9999 0C12.4691 0 12.8494 0.380297 12.8494 0.849516V4.27275C12.8494 4.74192 12.4691 5.12222 11.9999 5.12222Z" fill="#F85921"/>
<path opacity="0.52" d="M11.9999 24.0012C11.5307 24.0012 11.1504 23.6209 11.1504 23.1517V19.7284C11.1504 19.2592 11.5307 18.8789 11.9999 18.8789C12.4691 18.8789 12.8494 19.2592 12.8494 19.7284V23.1517C12.8494 23.6209 12.4691 24.0012 11.9999 24.0012Z" fill="#F85921"/>
<path opacity="0.58" d="M16.2139 23.1735C15.879 23.1735 15.5615 22.974 15.4271 22.6449L14.1335 19.4755C13.9562 19.0411 14.1647 18.5452 14.599 18.368C15.0331 18.1905 15.5292 18.399 15.7065 18.8334L17.0001 22.0027C17.1775 22.4371 16.969 22.933 16.5347 23.1103C16.4296 23.1532 16.3209 23.1735 16.2139 23.1735Z" fill="#F85921"/>
<path opacity="0.94" d="M14.9197 5.69717C14.8128 5.69717 14.7041 5.67692 14.599 5.63394C14.1646 5.45675 13.9562 4.96081 14.1335 4.52642L15.4272 1.35706C15.6044 0.922671 16.1003 0.713655 16.5347 0.89164C16.9691 1.06883 17.1775 1.56476 17.0001 1.99916L15.7065 5.16851C15.5721 5.49777 15.2547 5.69717 14.9197 5.69717Z" fill="#F85921"/>
<path opacity="0.46" d="M7.78594 23.1735C7.67902 23.1735 7.57032 23.1533 7.46523 23.1103C7.03084 22.9331 6.82243 22.4372 6.99976 22.0028L8.29337 18.8334C8.47069 18.399 8.96649 18.1905 9.40088 18.368C9.83527 18.5452 10.0437 19.0412 9.86635 19.4755L8.57274 22.6449C8.43835 22.9741 8.12091 23.1735 7.78594 23.1735Z" fill="#F85921"/>
<path opacity="0.36" d="M1.67669 17.0636C1.34172 17.0636 1.02429 16.8643 0.889895 16.535C0.712567 16.1006 0.920973 15.6047 1.35532 15.4274L4.52463 14.1338C4.95897 13.956 5.45486 14.1646 5.63219 14.5992C5.80952 15.0336 5.60111 15.5295 5.16677 15.7067L1.99746 17.0003C1.89236 17.0433 1.78361 17.0636 1.67669 17.0636Z" fill="#F85921"/>
<path opacity="0.82" d="M19.1547 9.9307C18.8198 9.9307 18.5023 9.73144 18.3679 9.40209C18.1906 8.9677 18.399 8.47181 18.8333 8.29458L22.0027 7.00092C22.4369 6.82322 22.9329 7.03177 23.1102 7.46634C23.2875 7.90073 23.0791 8.39663 22.6448 8.57386L19.4755 9.86752C19.3704 9.91045 19.2616 9.9307 19.1547 9.9307Z" fill="#F85921"/>
<path opacity="0.24" d="M4.8454 9.93057C4.73848 9.93057 4.62978 9.91032 4.52464 9.86733L1.35532 8.57368C0.920932 8.39649 0.712573 7.90055 0.889901 7.46616C1.06718 7.03177 1.56293 6.82341 1.99746 7.00074L5.16678 8.2944C5.60117 8.47158 5.80953 8.96752 5.6322 9.40191C5.49781 9.73112 5.18032 9.93057 4.8454 9.93057Z" fill="#F85921"/>
<path opacity="0.7" d="M22.3234 17.0633C22.2165 17.0633 22.1078 17.043 22.0027 17L18.8333 15.7064C18.399 15.5292 18.1906 15.0332 18.3679 14.5989C18.5453 14.1648 19.041 13.9562 19.4755 14.1335L22.6448 15.4271C23.0792 15.6043 23.2876 16.1003 23.1102 16.5346C22.9758 16.8638 22.6584 17.0633 22.3234 17.0633Z" fill="#F85921"/>
<path opacity="0.88" d="M17.4642 7.3852C17.2468 7.3852 17.0295 7.30223 16.8636 7.13634C16.5318 6.80465 16.5318 6.26676 16.8635 5.93507L19.2841 3.5145C19.6158 3.18267 20.1537 3.18267 20.4854 3.5145C20.8171 3.84618 20.8172 4.38407 20.4855 4.71576L18.0649 7.13634C17.8991 7.30223 17.6816 7.3852 17.4642 7.3852Z" fill="#F85921"/>
<path opacity="0.4" d="M4.11559 20.7329C3.89819 20.7329 3.68083 20.6499 3.51494 20.484C3.1832 20.1523 3.18316 19.6144 3.51489 19.2827L5.93542 16.8622C6.26716 16.5303 6.80505 16.5303 7.13678 16.8622C7.46852 17.1938 7.46856 17.7317 7.13683 18.0634L4.7163 20.484C4.55041 20.6499 4.33295 20.7329 4.11559 20.7329Z" fill="#F85921"/>
<path opacity="0.18" d="M6.53614 7.38509C6.31869 7.38509 6.10138 7.30213 5.93544 7.13623L3.51491 4.71566C3.18317 4.38397 3.18317 3.84608 3.51496 3.51439C3.84664 3.1827 4.38453 3.1827 4.71631 3.51439L7.13685 5.93497C7.46858 6.26666 7.46858 6.80455 7.1368 7.13623C6.97095 7.30213 6.7535 7.38509 6.53614 7.38509Z" fill="#F85921"/>
<path opacity="0.64" d="M19.8843 20.7327C19.6668 20.7327 19.4495 20.6498 19.2836 20.4839L16.863 18.0633C16.5313 17.7316 16.5313 17.1937 16.8631 16.862C17.1948 16.5304 17.7327 16.5304 18.0644 16.862L20.485 19.2826C20.8167 19.6143 20.8167 20.1522 20.4849 20.4839C20.3191 20.6498 20.1017 20.7327 19.8843 20.7327Z" fill="#F85921"/>
<path opacity="0.3" d="M4.27261 12.8514H0.849516C0.380344 12.8514 0 12.4711 0 12.0019C0 11.5326 0.380344 11.1523 0.849516 11.1523H4.27261C4.74178 11.1523 5.12212 11.5326 5.12212 12.0019C5.12212 12.4711 4.74178 12.8514 4.27261 12.8514Z" fill="#F85921"/>
<path opacity="0.76" d="M23.1506 12.8514H19.7274C19.2583 12.8514 18.8779 12.4711 18.8779 12.0019C18.8779 11.5326 19.2583 11.1523 19.7274 11.1523H23.1506C23.6198 11.1523 24.0001 11.5326 24.0001 12.0019C24.0001 12.4711 23.6199 12.8514 23.1506 12.8514Z" fill="#F85921"/>
</g>
<defs>
<clipPath id="clip0_403_7344">
<rect width="24" height="24" fill="white"/>
</clipPath>
</defs>
</svg>
