<svg  viewBox="0 0 24 24" xmlns="http://www.w3.org/2000/svg">
<g clip-path="url(#clip0_158_3402)">
<path d="M14.4999 12.8332C14.0391 12.8332 13.6666 13.2065 13.6666 13.6664V16.9998C13.6666 17.459 13.2932 17.8331 12.8332 17.8331H10.3332V5.33325C10.3332 4.62159 9.87986 3.98576 9.19826 3.7491L8.95153 3.66655H12.8332C13.2932 3.66655 13.6666 4.04069 13.6666 4.49997V6.99995C13.6666 7.45984 14.0391 7.83322 14.4999 7.83322C14.9607 7.83322 15.3331 7.45984 15.3331 6.99995V4.49997C15.3331 3.12166 14.2115 2 12.8332 2H3.87498C3.84324 2 3.81669 2.01419 3.78587 2.01831C3.74574 2.01495 3.70744 2 3.6667 2C2.74752 2 2 2.74737 2 3.66655V18.6664C2 19.3781 2.45333 20.0139 3.13494 20.2505L8.14999 21.9223C8.31997 21.9748 8.48904 21.9998 8.66665 21.9998C9.58583 21.9998 10.3332 21.2523 10.3332 20.3331V19.4998H12.8332C14.2115 19.4998 15.3331 18.3782 15.3331 16.9998V13.6664C15.3331 13.2065 14.9607 12.8332 14.4999 12.8332Z" fill="#8E7762"/>
<path d="M21.7545 9.74561L18.4211 6.41236C18.1829 6.17402 17.8245 6.1023 17.5129 6.23139C17.2021 6.36063 16.9987 6.66474 16.9987 7.0015V9.50147H13.6655C13.2054 9.50147 12.832 9.87469 12.832 10.3347C12.832 10.7948 13.2054 11.168 13.6655 11.168H16.9987V13.668C16.9987 14.0047 17.2021 14.3089 17.5129 14.4381C17.8245 14.5672 18.1829 14.4955 18.4211 14.2573L21.7545 10.9239C22.0803 10.5981 22.0803 10.0714 21.7545 9.74561Z" fill="#8E7762"/>
</g>
<defs>
<clipPath id="clip0_158_3402">
<rect width="20" height="20" fill="white" transform="translate(2 2)"/>
</clipPath>
</defs>
</svg>
