<svg width="185" height="70" viewBox="0 0 185 70" fill="none" xmlns="http://www.w3.org/2000/svg">
<path d="M54.9699 24.6458L43.9102 30.5665L63.0571 58.9135L73.2189 52.1036L54.9699 24.6458Z" fill="#20243A"/>
<path d="M30.0676 11.0742L19.0078 18.3506L36.9356 58.8834L47.0974 50.718L30.0676 11.0742Z" fill="#20243A"/>
<path d="M14.8994 24.3C15.9334 16.7232 22.4122 11.0742 30.068 11.0742L24.3184 53.2055C23.8712 56.4823 21.0693 58.9252 17.7584 58.9252C13.7466 58.9252 10.6567 55.3897 11.1985 51.4194L14.8994 24.3Z" fill="#F85921"/>
<path d="M54.9695 24.6472C47.3137 24.6472 40.835 30.2962 39.8011 37.8732L36.9277 58.9265C44.5836 58.9265 51.0622 53.2775 52.0965 45.7009L54.9695 24.6472Z" fill="#F85921"/>
<path d="M65.4688 41.2796C65.9158 38.0027 68.7177 35.5598 72.0288 35.5598C76.0404 35.5598 79.1305 39.0954 78.5885 43.0659L77.9681 47.6121C77.0836 54.0934 71.5415 58.9256 64.9927 58.9256H63.0605L65.4688 41.2796Z" fill="#F85921"/>
<path d="M93.5923 24.4724V14.5614H95.3714L99.3261 21.0319L98.6031 21.039L102.395 14.5614H104.153V24.4724H102.36L102.388 16.9684L102.728 17.0887L99.5246 22.4265H98.2275L94.946 17.0887L95.251 16.9684L95.2792 24.4724H93.5923ZM109.736 24.6848C108.98 24.6848 108.309 24.5149 107.723 24.1751C107.142 23.8306 106.686 23.3751 106.355 22.8088C106.024 22.2377 105.859 21.6124 105.859 20.9328C105.859 20.4325 105.954 19.9558 106.143 19.5028C106.331 19.0497 106.598 18.6509 106.943 18.3064C107.293 17.9571 107.704 17.6834 108.177 17.4852C108.649 17.2823 109.169 17.1808 109.736 17.1808C110.487 17.1808 111.153 17.3507 111.735 17.6905C112.32 18.0303 112.779 18.4857 113.11 19.0568C113.445 19.6279 113.613 20.2532 113.613 20.9328C113.613 21.4331 113.516 21.9097 113.322 22.3628C113.133 22.8112 112.866 23.21 112.521 23.5592C112.176 23.9084 111.768 24.1845 111.295 24.3875C110.823 24.5857 110.303 24.6848 109.736 24.6848ZM109.736 23.0991C110.133 23.0991 110.487 23.0117 110.799 22.8371C111.116 22.6578 111.364 22.4076 111.543 22.0867C111.723 21.7611 111.813 21.3764 111.813 20.9328C111.813 20.4892 111.723 20.1045 111.543 19.7789C111.364 19.4532 111.118 19.2031 110.806 19.0284C110.494 18.8538 110.138 18.7665 109.736 18.7665C109.334 18.7665 108.975 18.8538 108.659 19.0284C108.347 19.2031 108.101 19.4532 107.921 19.7789C107.747 20.1045 107.659 20.4892 107.659 20.9328C107.659 21.3764 107.749 21.7611 107.929 22.0867C108.108 22.4076 108.354 22.6578 108.666 22.8371C108.978 23.0117 109.334 23.0991 109.736 23.0991ZM115.106 24.4724V17.3932H116.85V21.8673L120.429 17.3932H122.031V24.4724H120.287V19.9417L116.687 24.4724H115.106ZM118.565 16.2605C118.017 16.2605 117.537 16.1519 117.126 15.9348C116.715 15.713 116.396 15.4086 116.169 15.0216C115.947 14.6346 115.843 14.1886 115.857 13.6836H117.353C117.339 14.0895 117.44 14.4175 117.658 14.6676C117.88 14.9131 118.182 15.0357 118.565 15.0357C118.947 15.0357 119.248 14.9131 119.465 14.6676C119.687 14.4175 119.786 14.0895 119.763 13.6836H121.265C121.279 14.1791 121.171 14.6228 120.939 15.0145C120.712 15.4015 120.393 15.7059 119.982 15.9277C119.571 16.1496 119.099 16.2605 118.565 16.2605ZM93.3867 40.0584V32.9791H94.946H94.9887L98.0646 37.4957L97.285 37.5099L100.198 32.9791H101.793V40.0584H100.17L100.191 35.0463L100.538 35.1879L98.1566 38.7204H97.0299L94.528 35.1808L94.868 35.0391L94.8965 40.0584H93.3867ZM107.161 40.2708C106.405 40.2708 105.734 40.1007 105.148 39.7611C104.567 39.4166 104.111 38.9611 103.78 38.3948C103.45 37.8236 103.284 37.1982 103.284 36.5187C103.284 36.0183 103.379 35.5417 103.568 35.0886C103.757 34.6355 104.024 34.2369 104.369 33.8923C104.718 33.5432 105.129 33.2695 105.602 33.0712C106.074 32.868 106.594 32.7666 107.161 32.7666C107.912 32.7666 108.579 32.9367 109.16 33.2763C109.746 33.6162 110.204 34.0717 110.535 34.6427C110.87 35.2139 111.038 35.8392 111.038 36.5187C111.038 37.0191 110.941 37.4957 110.747 37.9488C110.559 38.397 110.291 38.7959 109.947 39.1451C109.602 39.4943 109.193 39.7704 108.721 39.9733C108.248 40.1716 107.728 40.2708 107.161 40.2708ZM107.161 38.6849C107.558 38.6849 107.912 38.5977 108.224 38.4229C108.541 38.2438 108.789 37.9936 108.969 37.6726C109.148 37.347 109.238 36.9622 109.238 36.5187C109.238 36.0752 109.148 35.6905 108.969 35.3648C108.789 35.0391 108.543 34.7889 108.231 34.6145C107.92 34.4398 107.563 34.3525 107.161 34.3525C106.76 34.3525 106.4 34.4398 106.084 34.6145C105.772 34.7889 105.526 35.0391 105.347 35.3648C105.172 35.6905 105.085 36.0752 105.085 36.5187C105.085 36.9622 105.174 37.347 105.354 37.6726C105.533 37.9936 105.779 38.2438 106.091 38.4229C106.403 38.5977 106.76 38.6849 107.161 38.6849ZM116.04 40.2708C115.44 40.2708 114.899 40.1694 114.417 39.9662C113.935 39.7587 113.521 39.4614 113.176 39.0743C112.832 38.6827 112.567 38.2083 112.383 37.6513C112.203 37.0897 112.113 36.455 112.113 35.7471C112.113 34.9637 112.175 34.265 112.297 33.6517C112.425 33.0335 112.626 32.4978 112.9 32.0447C113.174 31.5916 113.533 31.2211 113.977 30.9332C114.421 30.6453 114.958 30.4399 115.586 30.3172L118.981 29.6519L119.264 31.188L115.962 31.7967C115.442 31.9006 115.033 32.0636 114.735 32.2854C114.438 32.5071 114.218 32.795 114.077 33.1489C113.935 33.4983 113.842 33.9159 113.8 34.402C114.098 34.0386 114.459 33.7507 114.884 33.5382C115.31 33.3261 115.801 33.2197 116.359 33.2197C117.025 33.2197 117.613 33.3731 118.123 33.6799C118.638 33.9867 119.042 34.3996 119.335 34.9188C119.628 35.4381 119.775 36.0115 119.775 36.639C119.775 37.1394 119.685 37.6089 119.505 38.0478C119.331 38.4866 119.078 38.8738 118.747 39.2088C118.416 39.5391 118.022 39.7989 117.564 39.9875C117.11 40.1762 116.602 40.2708 116.04 40.2708ZM116.011 38.6849C116.385 38.6849 116.718 38.6023 117.011 38.4372C117.308 38.272 117.542 38.0385 117.712 37.7363C117.887 37.4342 117.975 37.0757 117.975 36.6604C117.975 36.245 117.889 35.8863 117.719 35.5844C117.549 35.2776 117.315 35.0438 117.018 34.8833C116.72 34.7181 116.385 34.6355 116.011 34.6355C115.633 34.6355 115.296 34.7181 114.998 34.8833C114.7 35.0438 114.466 35.2776 114.296 35.5844C114.126 35.8863 114.041 36.245 114.041 36.6604C114.041 37.0757 114.126 37.4342 114.296 37.7363C114.466 38.0385 114.7 38.272 114.998 38.4372C115.296 38.6023 115.633 38.6849 116.011 38.6849ZM121.335 40.0584V32.9791H123.079V37.4533L126.658 32.9791H128.26V40.0584H126.516V35.5275L122.916 40.0584H121.335ZM130.177 40.2L129.56 38.5788C130.042 38.456 130.394 38.2673 130.616 38.0125C130.839 37.7577 130.98 37.406 131.042 36.9576C131.103 36.5094 131.134 35.9357 131.134 35.2374V32.9791H137.059V40.0584H135.244V34.4515H132.806V35.2374C132.806 35.9784 132.769 36.6297 132.693 37.1914C132.617 37.753 132.483 38.2343 132.289 38.6354C132.1 39.0365 131.833 39.3647 131.488 39.6195C131.148 39.8743 130.711 40.0679 130.177 40.2ZM139.151 40.0584V32.9791H140.965V38.7275H142.177C142.64 38.7275 142.99 38.6354 143.226 38.4514C143.467 38.2627 143.588 37.989 143.588 37.6302C143.588 37.2761 143.477 37.0024 143.255 36.8091C143.033 36.6109 142.714 36.5116 142.298 36.5116H140.746V35.195H142.44C143.375 35.195 144.112 35.4025 144.651 35.8179C145.19 36.2286 145.459 36.8326 145.459 37.6302C145.459 38.1353 145.331 38.5692 145.076 38.9326C144.821 39.2963 144.462 39.5746 143.999 39.7682C143.536 39.9616 142.992 40.0584 142.369 40.0584H139.151ZM147.028 40.0584V32.9791H148.842V35.6481H152.109V32.9791H153.924V40.0584H152.109V37.1206H148.842V40.0584H147.028ZM156.011 40.0584V32.9791H157.826V38.7275H158.967C159.43 38.7275 159.78 38.6354 160.016 38.4514C160.257 38.2627 160.378 37.989 160.378 37.6302C160.378 37.2761 160.266 37.0024 160.044 36.8091C159.822 36.6109 159.503 36.5116 159.088 36.5116H157.606V35.195H159.229C160.165 35.195 160.902 35.4025 161.441 35.8179C161.979 36.2286 162.248 36.8326 162.248 37.6302C162.248 38.1353 162.121 38.5692 161.866 38.9326C161.611 39.2963 161.252 39.5746 160.788 39.7682C160.326 39.9616 159.782 40.0584 159.158 40.0584H156.011ZM163.319 40.0584V32.9791H165.133V40.0584H163.319ZM167.224 40.0584V32.9791H168.968V37.4533L172.547 32.9791H174.149V40.0584H172.405V35.5275L168.804 40.0584H167.224ZM170.683 31.8465C170.135 31.8465 169.655 31.7379 169.244 31.5208C168.833 31.2991 168.514 30.9945 168.287 30.6075C168.065 30.2206 167.961 29.7747 167.975 29.2696H169.471C169.457 29.6754 169.558 30.0035 169.776 30.2534C169.998 30.499 170.3 30.6218 170.683 30.6218C171.065 30.6218 171.365 30.499 171.583 30.2534C171.805 30.0035 171.904 29.6754 171.881 29.2696H173.383C173.397 29.7651 173.289 30.2086 173.057 30.6004C172.83 30.9873 172.511 31.292 172.1 31.5137C171.689 31.7355 171.217 31.8465 170.683 31.8465ZM93.3867 55.6443V48.565H100.276V55.6443H98.4616V50.0375H95.2012V55.6443H93.3867ZM105.348 55.8568C104.653 55.8568 104.036 55.6963 103.498 55.3752C102.964 55.0545 102.543 54.6107 102.236 54.0444C101.929 53.4781 101.775 52.8314 101.775 52.1046C101.775 51.5572 101.863 51.0546 102.038 50.5966C102.213 50.1389 102.458 49.7424 102.775 49.4075C103.096 49.0725 103.474 48.8127 103.909 48.6287C104.348 48.4447 104.828 48.3525 105.348 48.3525C106.033 48.3525 106.609 48.4988 107.077 48.7917C107.545 49.0843 107.894 49.4641 108.126 49.9314L107.871 50.3207V48.565H109.465V55.6443H107.871V53.8886L108.126 54.2779C107.894 54.7452 107.545 55.125 107.077 55.4179C106.609 55.7105 106.033 55.8568 105.348 55.8568ZM105.617 54.2708C106.009 54.2708 106.359 54.1836 106.666 54.0089C106.973 53.8298 107.216 53.5796 107.396 53.2586C107.575 52.9329 107.665 52.5482 107.665 52.1046C107.665 51.6611 107.575 51.2764 107.396 50.9507C107.216 50.6251 106.973 50.3749 106.666 50.2004C106.359 50.0257 106.009 49.9385 105.617 49.9385C105.225 49.9385 104.873 50.0257 104.561 50.2004C104.254 50.3749 104.01 50.6251 103.831 50.9507C103.656 51.2764 103.568 51.6611 103.568 52.1046C103.568 52.5482 103.656 52.9329 103.831 53.2586C104.01 53.5796 104.254 53.8298 104.561 54.0089C104.873 54.1836 105.225 54.2708 105.617 54.2708ZM111.562 58.6177V48.565H113.164V49.4996C113.438 49.1551 113.79 48.8789 114.22 48.6711C114.65 48.4589 115.17 48.3525 115.78 48.3525C116.465 48.3525 117.074 48.5131 117.608 48.8341C118.142 49.1551 118.56 49.5986 118.863 50.1649C119.17 50.7265 119.323 51.3732 119.323 52.1046C119.323 52.6286 119.236 53.1169 119.061 53.57C118.886 54.0231 118.64 54.422 118.324 54.7666C118.007 55.1062 117.629 55.3731 117.19 55.5664C116.755 55.76 116.276 55.8568 115.751 55.8568C115.241 55.8568 114.787 55.7693 114.39 55.5948C113.998 55.4154 113.658 55.1723 113.37 54.8655V58.6177H111.562ZM115.446 54.2708C115.848 54.2708 116.205 54.1836 116.517 54.0089C116.828 53.8298 117.074 53.5796 117.254 53.2586C117.433 52.9329 117.523 52.5482 117.523 52.1046C117.523 51.6611 117.433 51.2764 117.254 50.9507C117.074 50.6251 116.826 50.3749 116.509 50.2004C116.198 50.0257 115.843 49.9385 115.446 49.9385C115.045 49.9385 114.688 50.0257 114.376 50.2004C114.064 50.3749 113.819 50.6251 113.639 50.9507C113.46 51.2764 113.37 51.6611 113.37 52.1046C113.37 52.5482 113.457 52.9329 113.632 53.2586C113.812 53.5796 114.057 53.8298 114.369 54.0089C114.686 54.1836 115.045 54.2708 115.446 54.2708ZM122.347 55.6443V50.0375H120.114V48.565H126.394V50.0375H124.161V55.6443H122.347ZM127.772 55.6443V48.565H129.587V51.234H132.854V48.565H134.668V55.6443H132.854V52.7065H129.587V55.6443H127.772ZM140.031 55.8568C139.26 55.8568 138.585 55.7009 138.004 55.3895C137.422 55.0734 136.969 54.6342 136.643 54.0726C136.322 53.5109 136.161 52.8574 136.161 52.1118C136.161 51.5643 136.253 51.0618 136.437 50.6038C136.626 50.146 136.891 49.7495 137.231 49.4146C137.576 49.0747 137.978 48.8127 138.436 48.6287C138.899 48.4447 139.405 48.3525 139.953 48.3525C140.548 48.3525 141.08 48.4589 141.547 48.6711C142.015 48.8789 142.403 49.174 142.71 49.5562C143.021 49.9336 143.239 50.3773 143.362 50.887C143.489 51.3921 143.506 51.9441 143.411 52.5435H137.869C137.864 52.9165 137.952 53.2422 138.131 53.5205C138.315 53.7989 138.575 54.0184 138.911 54.179C139.251 54.3345 139.65 54.4125 140.109 54.4125C140.515 54.4125 140.905 54.3534 141.278 54.2356C141.651 54.1174 141.999 53.943 142.32 53.7116L142.958 54.9788C142.736 55.1581 142.459 55.314 142.128 55.4461C141.798 55.5781 141.448 55.6796 141.08 55.7504C140.716 55.8212 140.366 55.8568 140.031 55.8568ZM137.975 51.2551H141.654C141.64 50.7785 141.481 50.4055 141.179 50.1367C140.876 49.863 140.454 49.726 139.91 49.726C139.371 49.726 138.927 49.863 138.578 50.1367C138.228 50.4055 138.027 50.7785 137.975 51.2551ZM138.294 47.3898C138.011 47.3898 137.76 47.2932 137.543 47.0997C137.325 46.9014 137.217 46.6466 137.217 46.3351C137.217 46.1227 137.267 45.9386 137.366 45.7828C137.47 45.6223 137.602 45.4998 137.763 45.4147C137.928 45.325 138.105 45.2802 138.294 45.2802C138.578 45.2802 138.828 45.377 139.045 45.5706C139.263 45.7639 139.371 46.0188 139.371 46.3351C139.371 46.5427 139.322 46.7267 139.223 46.8872C139.123 47.043 138.991 47.1656 138.826 47.2552C138.66 47.3449 138.483 47.3898 138.294 47.3898ZM141.526 47.3898C141.243 47.3898 140.992 47.2932 140.775 47.0997C140.557 46.9014 140.449 46.6466 140.449 46.3351C140.449 46.1227 140.499 45.9386 140.598 45.7828C140.702 45.6223 140.834 45.4998 140.995 45.4147C141.16 45.325 141.337 45.2802 141.526 45.2802C141.81 45.2802 142.06 45.377 142.277 45.5706C142.495 45.7639 142.603 46.0188 142.603 46.3351C142.603 46.5427 142.554 46.7267 142.455 46.8872C142.355 47.043 142.223 47.1656 142.058 47.2552C141.892 47.3449 141.715 47.3898 141.526 47.3898ZM144.965 58.6177V48.565H146.567V49.4996C146.841 49.1551 147.193 48.8789 147.623 48.6711C148.053 48.4589 148.572 48.3525 149.182 48.3525C149.867 48.3525 150.477 48.5131 151.011 48.8341C151.545 49.1551 151.963 49.5986 152.265 50.1649C152.572 50.7265 152.726 51.3732 152.726 52.1046C152.726 52.6286 152.638 53.1169 152.464 53.57C152.289 54.0231 152.043 54.422 151.726 54.7666C151.41 55.1062 151.032 55.3731 150.592 55.5664C150.158 55.76 149.678 55.8568 149.154 55.8568C148.643 55.8568 148.19 55.7693 147.793 55.5948C147.401 55.4154 147.06 55.1723 146.772 54.8655V58.6177H144.965ZM148.849 54.2708C149.25 54.2708 149.607 54.1836 149.919 54.0089C150.231 53.8298 150.477 53.5796 150.656 53.2586C150.836 52.9329 150.926 52.5482 150.926 52.1046C150.926 51.6611 150.836 51.2764 150.656 50.9507C150.477 50.6251 150.229 50.3749 149.912 50.2004C149.6 50.0257 149.246 49.9385 148.849 49.9385C148.447 49.9385 148.091 50.0257 147.779 50.2004C147.467 50.3749 147.221 50.6251 147.042 50.9507C146.862 51.2764 146.772 51.6611 146.772 52.1046C146.772 52.5482 146.86 52.9329 147.034 53.2586C147.214 53.5796 147.46 53.8298 147.772 54.0089C148.088 54.1836 148.447 54.2708 148.849 54.2708Z" fill="#20243A"/>
</svg>
