<svg  viewBox="0 0 24 24"  xmlns="http://www.w3.org/2000/svg">
<path fill-rule="evenodd" clip-rule="evenodd" d="M20.75 3V22C20.75 22.278 20.596 22.533 20.35 22.663C20.104 22.793 19.807 22.776 19.577 22.619L17.082 20.916L14.723 22.609C14.44 22.813 14.054 22.794 13.792 22.564L12 20.997L10.208 22.564C9.946 22.794 9.56 22.813 9.277 22.609L6.918 20.916L4.423 22.619C4.193 22.776 3.896 22.793 3.65 22.663C3.404 22.533 3.25 22.278 3.25 22V3C3.25 2.034 4.033 1.25 5 1.25H19C19.967 1.25 20.75 2.034 20.75 3ZM8 10.75H16C16.414 10.75 16.75 10.414 16.75 10C16.75 9.586 16.414 9.25 16 9.25H8C7.586 9.25 7.25 9.586 7.25 10C7.25 10.414 7.586 10.75 8 10.75ZM8 6.75H16C16.414 6.75 16.75 6.414 16.75 6C16.75 5.586 16.414 5.25 16 5.25H8C7.586 5.25 7.25 5.586 7.25 6C7.25 6.414 7.586 6.75 8 6.75ZM8 14.75H12C12.414 14.75 12.75 14.414 12.75 14C12.75 13.586 12.414 13.25 12 13.25H8C7.586 13.25 7.25 13.586 7.25 14C7.25 14.414 7.586 14.75 8 14.75Z" fill="#8E7762"/>
</svg>
