<svg  viewBox="0 0 31 31" xmlns="http://www.w3.org/2000/svg">
<g clip-path="url(#clip0_403_8726)">
<path d="M28.4173 15.5026C28.4173 22.6363 22.6343 28.4193 15.5007 28.4193C8.36697 28.4193 2.58398 22.6363 2.58398 15.5026C2.58398 8.36893 8.36697 2.58594 15.5007 2.58594C22.6343 2.58594 28.4173 8.36893 28.4173 15.5026Z" fill="#ECE5DD"/>
<path d="M21.4737 14.871C21.9246 14.8711 22.2901 15.2366 22.2901 15.6875C22.2901 16.1384 21.9246 16.5039 21.4737 16.504V14.871ZM8.33828 15.6875C8.33828 15.2647 8.65981 14.9167 9.0716 14.8749L9.15509 14.8707L21.4737 14.871V16.504L9.15509 16.5043L9.0716 16.5001C8.65981 16.4583 8.33828 16.1103 8.33828 15.6875Z" fill="white"/>
<path d="M16.1309 21.4737C16.1308 21.9246 15.7654 22.2901 15.3145 22.2901C14.8635 22.2901 14.4981 21.9246 14.498 21.4737H16.1309ZM15.3145 8.33828C15.7373 8.33828 16.0853 8.65981 16.1271 9.0716L16.1313 9.15509L16.1309 21.4737H14.498L14.4976 9.15509L14.5018 9.0716C14.5436 8.65981 14.8916 8.33828 15.3145 8.33828Z" fill="white"/>
</g>
<defs>
<clipPath id="clip0_403_8726">
<rect width="31" height="31" fill="white"/>
</clipPath>
</defs>
</svg>
