<svg width="50" height="30" viewBox="0 0 50 30" fill="none" xmlns="http://www.w3.org/2000/svg">
<g clip-path="url(#clip0_403_8192)">
<mask id="mask0_403_8192" style="mask-type:luminance" maskUnits="userSpaceOnUse" x="0" y="0" width="50" height="30">
<path d="M49.7966 0.128906H0.203125V29.8695H49.7966V0.128906Z" fill="white"/>
</mask>
<g mask="url(#mask0_403_8192)">
<path d="M8.55577 0.351562V13.6747H6.29914V2.26882H2.45975V13.6747H0.203125V0.351562H8.55577Z" fill="#1928DC"/>
<path d="M12.631 13.1465C11.955 12.5356 11.4633 11.753 11.2101 10.8848C10.8396 9.66649 10.6634 8.39897 10.6878 7.12745C10.6639 5.82049 10.84 4.51745 11.2101 3.26209C11.4587 2.36539 11.9498 1.55181 12.631 0.907929C13.2266 0.405241 13.9854 0.128906 14.7701 0.128906C15.5548 0.128906 16.3135 0.405241 16.9092 0.907929C17.594 1.54603 18.0843 2.35956 18.3248 3.25695C18.6955 4.51397 18.8716 5.81877 18.8472 7.12745C18.8714 8.40065 18.6952 9.66985 18.3248 10.89C18.0781 11.7585 17.5896 12.5418 16.9144 13.1516C16.307 13.6335 15.5503 13.8963 14.7701 13.8963C13.9898 13.8963 13.2331 13.6335 12.6258 13.1516L12.631 13.1465ZM13.1847 9.77457C13.273 10.3556 13.4906 10.9102 13.822 11.3988C13.9264 11.5527 14.0666 11.6796 14.2311 11.769C14.3957 11.8585 14.5796 11.9078 14.7675 11.9128C15.3264 11.9128 15.7652 11.5119 16.0891 10.7101C16.4638 9.54805 16.6266 8.32989 16.5696 7.11201C16.584 6.18553 16.5106 5.25973 16.3503 4.34665C16.266 3.74629 16.0503 3.17108 15.7182 2.6607C15.625 2.49346 15.4878 2.35394 15.321 2.25676C15.1542 2.15958 14.9639 2.10831 14.7701 2.10831C14.5762 2.10831 14.3859 2.15958 14.2192 2.25676C14.0524 2.35394 13.9152 2.49346 13.822 2.6607C13.4938 3.17163 13.2768 3.74393 13.1847 4.34153C13.0224 5.25269 12.9473 6.17677 12.9601 7.10173C12.9458 7.99777 13.021 8.89301 13.1847 9.77457Z" fill="#1928DC"/>
<path d="M26.3003 0.351562V5.46081H25.1041C24.6705 5.48421 24.2374 5.40673 23.8399 5.23465C23.5262 5.07081 23.286 4.79773 23.1661 4.46877C23.0065 4.01113 22.9339 3.52848 22.9519 3.04497V0.351562H20.6953V3.03469C20.6297 4.19209 20.9811 5.33517 21.6878 6.26265C22.0588 6.66821 22.5188 6.98541 23.0328 7.19025C23.5469 7.39505 24.1015 7.48213 24.6548 7.44489H26.3003V13.6747H28.5569V0.351562H26.3003Z" fill="#1928DC"/>
<path d="M38.4538 2.26882H35.8054V13.6747H33.5488V2.26882H30.9004V0.351562H38.4538V2.26882Z" fill="#1928DC"/>
<path d="M43.0005 0.349147H44.8078C45.5525 0.309557 46.2927 0.488452 46.9338 0.863156C47.4936 1.23118 47.9285 1.75574 48.1826 2.3692C48.4932 3.13029 48.6883 3.93213 48.7623 4.74907L49.807 13.6465H47.5505L46.8192 7.43219H42.9899V13.6723H40.7334V0.349147H43.0005ZM43.0005 5.54063H46.6049L46.511 4.77475C46.4692 4.28263 46.3655 3.79749 46.2025 3.3304C46.0883 3.01611 45.8643 2.75197 45.5704 2.58508C45.1915 2.40634 44.7728 2.325 44.3533 2.34864H43.0005V5.54063Z" fill="#1928DC"/>
<path d="M2.68959 16.3256C3.44198 16.306 4.18459 16.4967 4.8313 16.8756C5.46536 17.2727 5.95967 17.8524 6.24691 18.5358C6.61386 19.4067 6.79178 20.3433 6.76926 21.2858C6.79252 22.1772 6.63077 23.0639 6.29394 23.8918C6.04439 24.5277 5.64097 25.0941 5.11861 25.5418C4.7654 25.8692 4.30735 26.0655 3.82312 26.0969C3.57232 26.1142 3.3207 26.0772 3.08604 25.9883C2.85137 25.8995 2.63936 25.7611 2.46497 25.5829V29.6487H0.203125V16.3256H2.68959ZM2.59034 23.2236C2.64599 23.4617 2.76086 23.6825 2.92465 23.8661C2.97802 23.9307 3.04475 23.9834 3.12041 24.0206C3.19607 24.0578 3.27892 24.0788 3.36344 24.082C3.56172 24.0712 3.74843 23.9867 3.88581 23.8456C4.09678 23.6298 4.24788 23.3643 4.32459 23.0746C4.4515 22.6316 4.50963 22.1724 4.49699 21.7124C4.49699 20.4685 4.34548 19.5895 4.03207 19.0755C3.90376 18.838 3.71059 18.6405 3.47432 18.5052C3.23806 18.3698 2.96808 18.3021 2.69482 18.3097H2.46497V22.1956C2.45801 22.5423 2.50021 22.8883 2.59034 23.2236Z" fill="#1928DC"/>
<path d="M9.26093 29.114C8.58195 28.5034 8.08983 27.7183 7.84008 26.8472C7.46918 25.6289 7.29296 24.3614 7.31772 23.0898C7.29378 21.7846 7.46987 20.4832 7.84008 19.2296C8.08658 18.3335 8.578 17.5211 9.26093 16.8806C9.85654 16.3779 10.6153 16.1016 11.4 16.1016C12.1847 16.1016 12.9435 16.3779 13.5391 16.8806C14.221 17.519 14.7108 18.33 14.9547 19.2245C15.325 20.4816 15.5011 21.7863 15.4771 23.095C15.5106 24.3668 15.3432 25.6362 14.9808 26.8575C14.7354 27.7266 14.2467 28.5102 13.5704 29.1191C12.9647 29.6046 12.2074 29.8697 11.4261 29.8697C10.6449 29.8697 9.88756 29.6046 9.28182 29.1191L9.26093 29.114ZM9.81983 25.7472C9.91146 26.3138 10.1271 26.854 10.4519 27.3304C10.5552 27.4828 10.6939 27.6089 10.8565 27.6983C11.019 27.7876 11.2008 27.8377 11.3869 27.8444C11.9441 27.8444 12.3829 27.4435 12.7033 26.6416C13.0832 25.4806 13.2478 24.2619 13.1891 23.0436C13.2033 22.117 13.1299 21.1913 12.9697 20.2782C12.883 19.6816 12.6675 19.1102 12.3376 18.6025C12.2445 18.4353 12.1073 18.2958 11.9405 18.1986C11.7737 18.1014 11.5834 18.0501 11.3895 18.0501C11.1957 18.0501 11.0054 18.1014 10.8387 18.1986C10.6719 18.2958 10.5347 18.4353 10.4415 18.6025C10.1127 19.1286 9.90081 19.7172 9.81983 20.3296C9.65808 21.2408 9.58288 22.1649 9.59524 23.0898C9.58211 23.9807 9.65731 24.8707 9.81983 25.7472Z" fill="#1928DC"/>
<path d="M17.0184 19.3339C17.5691 18.33 18.4362 17.5291 19.4891 17.0517C20.7219 16.525 22.0586 16.2757 23.4017 16.3218V18.3213C21.7928 18.3213 20.5652 18.7171 19.7138 19.5189C18.8623 20.3208 18.434 21.5082 18.434 23.117C18.434 24.7259 18.8571 25.7899 19.7086 26.5403C20.56 27.2908 21.798 27.6711 23.4017 27.6711V29.6449C21.0928 29.6449 19.3115 29.0967 18.0579 28.0001C16.8042 26.9035 16.1773 25.2673 16.1773 23.0913C16.1277 21.7888 16.4172 20.4954 17.0184 19.3339Z" fill="#1928DC"/>
<path d="M24.6141 19.337C25.1653 18.3316 26.0345 17.5304 27.0901 17.0548C28.3146 16.5234 29.644 16.267 30.9817 16.3043V18.3039C29.3781 18.3039 28.1505 18.6996 27.2938 19.5015C26.4371 20.3033 26.014 21.5113 26.014 23.0944C26.014 24.6775 26.4371 25.7673 27.2886 26.5177C28.1401 27.2682 29.3781 27.6485 30.9765 27.6485V29.648C28.6677 29.648 26.8864 29.0997 25.6327 28.0032C24.379 26.9067 23.7522 25.2704 23.7522 23.0944C23.709 21.7901 24.0057 20.4966 24.6141 19.337Z" fill="#1928DC"/>
<path d="M34.2978 16.325V21.0796L38.1319 17.8979L40.3885 16.0269V29.6481H38.1319V20.581L34.2978 23.7627V29.6481H32.0359V16.325H34.2978Z" fill="#1928DC"/>
<path d="M43.7061 16.323V21.0776L47.5403 17.8959L49.7862 16.0352V29.6461H47.5297V20.579L43.6956 23.7607V29.6461H41.4492V16.323H43.7061Z" fill="#1928DC"/>
</g>
</g>
<defs>
<clipPath id="clip0_403_8192">
<rect width="50" height="30" fill="white"/>
</clipPath>
</defs>
</svg>
