<svg viewBox="0 0 24 24" xmlns="http://www.w3.org/2000/svg">
<path d="M11.2005 9.59844C11.2005 10.4783 10.48 11.1985 9.60039 11.1985H4.00047C3.12063 11.1985 2.40039 10.4783 2.40039 9.59844V3.99852C2.40039 3.11868 3.12063 2.39844 4.00047 2.39844H9.60039C10.48 2.39844 11.2005 3.11868 11.2005 3.99852V9.59844Z"  fill-opacity="0.5"/>
<path d="M11.2005 20.0005C11.2005 20.8804 10.48 21.6006 9.60039 21.6006H4.00047C3.12063 21.6006 2.40039 20.8804 2.40039 20.0005V14.4006C2.40039 13.521 3.12063 12.8008 4.00047 12.8008H9.60039C10.48 12.8008 11.2005 13.521 11.2005 14.4006V20.0005Z"  fill-opacity="0.5"/>
<path d="M12.7998 2.39844H16.7999V3.99852H12.7998V2.39844Z"  fill-opacity="0.5"/>
<path d="M12.7998 8.80078H18.4V10.4009H12.7998V8.80078Z"  fill-opacity="0.5"/>
<path d="M12.7998 5.60156H21.5999V7.20164H12.7998V5.60156Z"  fill-opacity="0.5"/>
<path d="M12.7998 12.8008H21.5999V14.4006H12.7998V12.8008Z"  fill-opacity="0.5"/>
<path d="M12.7998 19.1992H18.4V20.7993H12.7998V19.1992Z"  fill-opacity="0.5"/>
<path d="M12.7998 16H16.7999V17.5998H12.7998V16Z"  fill-opacity="0.5"/>
</svg>
