<svg  viewBox="0 0 24 24"  xmlns="http://www.w3.org/2000/svg">
<path d="M17.5927 12.4964C20.2375 13.5441 22 15.3393 22 17.5C22 19.3198 20.7717 20.5539 18.6733 21.2365C17.037 21.7688 14.8219 22 12 22C9.17805 22 6.96305 21.7688 5.32669 21.2365C3.22831 20.5539 2 19.3198 2 17.5C2 15.3393 3.76251 13.5441 6.40729 12.4964C7.85079 14.1248 9.92893 15 12 15C14.0711 15 16.1144 14.1248 17.5927 12.4964ZM12 2C15.0376 2 17.5 4.46243 17.5 7.5C17.5 10.5376 15.0376 13 12 13C8.96243 13 6.5 10.5376 6.5 7.5C6.5 4.46243 8.96243 2 12 2Z"  fill-opacity="0.5"/>
</svg>
