<svg width="71" height="20" viewBox="0 0 71 20" fill="none" xmlns="http://www.w3.org/2000/svg">
<g clip-path="url(#clip0_403_7871)">
<path fill-rule="evenodd" clip-rule="evenodd" d="M11.1251 14.8648H8.06348C3.28744 14.8648 6.75723 4.75915 10.7781 4.75915H15.6154C16.3909 4.75915 17.7585 4.90151 18.432 2.99015L19.4729 0.0214844H12.8395C9.24732 0.0214844 6.45105 1.28215 4.43043 3.39682C0.940232 7.01614 -0.243573 12.6688 0.593258 15.3732C1.38927 17.8741 3.55278 19.5212 6.9409 19.5618L9.57387 19.5821H12.8191L13.6151 17.2032C14.207 15.5155 12.8804 14.8648 11.1251 14.8648ZM48.3946 10.6761L49.3946 7.44317H38.72C36.9443 7.44317 36.1483 7.93117 35.8422 8.9478L34.842 12.1808H45.5167C47.2924 12.1808 48.0884 11.6928 48.3946 10.6761ZM33.25 16.3695L32.2499 19.6025H42.9246C44.6799 19.6025 45.4963 19.1145 45.8025 18.0979L46.8026 14.8648H36.1279C34.3726 14.8648 33.5766 15.3528 33.25 16.3695ZM50.8846 3.27482L51.885 0.0418174H41.2101C39.4344 0.0418174 38.6384 0.529817 38.3323 1.54649L37.3321 4.77949H48.0068C49.7623 4.77949 50.558 4.29149 50.8846 3.27482ZM34.7604 3.92549C34.3114 0.916154 32.6989 0.0418174 28.7801 0.0418174H21.6365L17.4727 12.1808H20.1057C21.6773 12.1808 22.4733 12.2012 23.3101 9.96449L25.045 4.75915H27.6984C29.9639 4.75915 29.4537 7.58551 28.3107 10.3305C27.2902 12.7501 25.5145 14.8852 23.3713 14.8852H18.9423C17.1666 14.8852 16.3502 15.3732 16.0236 16.3899L14.9214 19.6228H18.1667L21.3507 19.6025C24.1674 19.5821 26.4737 19.3788 29.1679 16.9592C32.0254 14.3768 35.3319 7.74814 34.7604 3.92549ZM70.6422 0.0214844H64.4579L58.6408 6.18249C57.967 6.89414 57.2731 7.6058 56.5994 8.43951H56.5382L59.4364 0.0214844H54.3954L47.5986 19.6025H52.64L54.8033 13.4415L57.0484 11.5505L58.8244 17.1219C59.3752 18.8501 59.9472 19.6025 61.1718 19.6025H65.0293L61.0694 8.66317L70.6422 0.0214844Z" fill="#00B33C"/>
</g>
<defs>
<clipPath id="clip0_403_7871">
<rect width="71" height="20" fill="white"/>
</clipPath>
</defs>
</svg>
