<svg  viewBox="0 0 24 24"  xmlns="http://www.w3.org/2000/svg">
<path d="M2.83333 8.33333H4.66667V15.6667H2.83333C1.82214 15.6667 1 14.8445 1 13.8333V10.1667C1 9.15547 1.82214 8.33333 2.83333 8.33333ZM21.1667 8.33333H19.3333V15.6667H21.1667C22.1779 15.6667 23 14.8445 23 13.8333V10.1667C23 9.15547 22.1779 8.33333 21.1667 8.33333ZM12 3.93333C8.76517 3.93333 6.13333 6.56517 6.13333 9.8V14.2C6.13333 17.4348 8.76517 20.0667 12 20.0667C15.2348 20.0667 17.8667 17.4348 17.8667 14.2V9.8C17.8667 6.56517 15.2348 3.93333 12 3.93333ZM12 1C7.94447 1 4.37305 3.33177 2.71589 6.87383C2.75241 6.86667 2.79681 6.86667 2.83333 6.86667H4.37305C5.90632 4.18971 8.77305 2.46667 12 2.46667C15.227 2.46667 18.0937 4.18971 19.627 6.86667H21.1667C21.2032 6.86667 21.2476 6.86667 21.2841 6.87383C19.627 3.33177 16.0555 1 12 1ZM21.1667 17.1333H19.627C18.0937 19.8103 15.227 21.5333 12 21.5333H11.2667V23H12C16.0555 23 19.6191 20.6682 21.2841 17.1262C21.2476 17.1333 21.2032 17.1333 21.1667 17.1333Z" fill="#8E7762"/>
</svg>
