<svg width="20" height="20" viewBox="0 0 20 20" fill="none" xmlns="http://www.w3.org/2000/svg">
<path d="M10 2.5C5.85476 2.5 2.5 5.85438 2.5 10C2.5 14.1452 5.85438 17.5 10 17.5C14.1452 17.5 17.5 14.1456 17.5 10C17.5 5.85481 14.1456 2.5 10 2.5ZM10.7702 12.9772C10.7702 13.2141 10.4247 13.451 10.0001 13.451C9.55589 13.451 9.24001 13.2141 9.24001 12.9772V9.21584C9.24001 8.93942 9.55592 8.75181 10.0001 8.75181C10.4247 8.75181 10.7702 8.93942 10.7702 9.21584V12.9772ZM10.0002 7.84363C9.54605 7.84363 9.19067 7.50798 9.19067 7.1328C9.19067 6.75766 9.54607 6.43187 10.0002 6.43187C10.4444 6.43187 10.7999 6.75766 10.7999 7.1328C10.7999 7.50798 10.4444 7.84363 10.0002 7.84363Z" fill="#8E7762"/>
</svg>
